<?xml version="1.0" encoding="iso-8859-1"?>
<!-- Generator: Adobe Illustrator 19.0.0, SVG Export Plug-In . SVG Version: 6.00 Build 0)  -->
<svg version="1.1" id="Capa_1" xmlns="http://www.w3.org/2000/svg" xmlns:xlink="http://www.w3.org/1999/xlink" x="0px" y="0px"
	 viewBox="0 0 511.998 511.998" style="enable-background:new 0 0 511.998 511.998;" xml:space="preserve">
<g>
	<g>
		<path d="M256.059,104.822c-83.326,0-151.117,67.79-151.117,151.117s67.79,151.117,151.117,151.117s151.117-67.79,151.117-151.117
			S339.384,104.822,256.059,104.822z M256.059,377.067c-66.791,0-121.129-54.338-121.129-121.129s54.338-121.129,121.129-121.129
			s121.129,54.338,121.129,121.129S322.849,377.067,256.059,377.067z"/>
	</g>
</g>
<g>
	<g>
		<rect x="241.064" y="0.048" width="29.987" height="63.643"/>
	</g>
</g>
<g>
	<g>
		
			<rect x="336.018" y="46.762" transform="matrix(0.4989 -0.8667 0.8667 0.4989 130.8095 349.7435)" width="63.645" height="29.987"/>
	</g>
</g>
<g>
	<g>
		
			<rect x="418.003" y="128.401" transform="matrix(0.8647 -0.5023 0.5023 0.8647 -11.1634 245.3478)" width="63.643" height="29.987"/>
	</g>
</g>
<g>
	<g>
		<rect x="448.295" y="240.073" transform="matrix(1 -0.004 0.004 1 -1.0164 1.9225)" width="63.643" height="29.987"/>
	</g>
</g>
<g>
	<g>
		
			<rect x="435.693" y="335.108" transform="matrix(0.4954 -0.8687 0.8687 0.4954 -91.3195 576.6593)" width="29.987" height="63.645"/>
	</g>
</g>
<g>
	<g>
		
			<rect x="354.389" y="417.43" transform="matrix(0.8627 -0.5057 0.5057 0.8627 -176.4746 248.4773)" width="29.987" height="63.642"/>
	</g>
</g>
<g>
	<g>
		<rect x="242.865" y="448.188" transform="matrix(1 -0.0079 0.0079 1 -3.7836 2.0518)" width="29.988" height="63.645"/>
	</g>
</g>
<g>
	<g>
		
			<rect x="114.032" y="436.037" transform="matrix(0.492 -0.8706 0.8706 0.492 -318.5721 356.1039)" width="63.643" height="29.987"/>
	</g>
</g>
<g>
	<g>
		
			<rect x="31.395" y="355.044" transform="matrix(0.8607 -0.5091 0.5091 0.8607 -179.5817 83.7278)" width="63.642" height="29.987"/>
	</g>
</g>
<g>
	<g>
		<rect x="0.176" y="243.613" transform="matrix(0.9999 -0.0119 0.0119 0.9999 -3.0754 0.3991)" width="63.641" height="29.986"/>
	</g>
</g>
<g>
	<g>
		
			<rect x="45.542" y="114.665" transform="matrix(0.4885 -0.8726 0.8726 0.4885 -96.8558 127.7526)" width="29.988" height="63.645"/>
	</g>
</g>
<g>
	<g>
		<rect x="126.221" y="31.724" transform="matrix(0.8586 -0.5126 0.5126 0.8586 -12.6089 81.372)" width="29.987" height="63.641"/>
	</g>
</g>
<g>
</g>
<g>
</g>
<g>
</g>
<g>
</g>
<g>
</g>
<g>
</g>
<g>
</g>
<g>
</g>
<g>
</g>
<g>
</g>
<g>
</g>
<g>
</g>
<g>
</g>
<g>
</g>
<g>
</g>
</svg>
